PathFileType	3	(X/Y/Z)	D:\minhoCalibration\240510\subject1_KPNP\preferred\preferred09.trc
DataRate	CameraRate	NumFrames	NumMarkers	Units	OrigDataRate	OrigDataStartFrame	OrigNumFrames
200.0	200.0	18	10	mm	200.0	507	215	
Frame#	Time	Left_Ankle_Outer1			Left_Ankle_Inner1			Left_Knee_Outer1			Left_Knee_Inner1			Left_Wrist1			Right_Wrist1			Right_Knee_Inner1			Right_Knee_Outer1			Right_Ankle_Inner1			Right_Ankle_Outer1			
		X1	Y1	Z1	X2	Y2	Z2	X3	Y3	Z3	X4	Y4	Z4	X5	Y5	Z5	X6	Y6	Z6	X7	Y7	Z7	X8	Y8	Z8	X9	Y9	Z9	X10	Y10	Z10	
507	2.525	-463.37994	129.94412	-558.29218	-511.50519	138.0029	-529.62604	-334.13602	539.65479	-397.40845	-441.73755	517.93329	-375.54486	-324.42316	996.33502	-546.2973	-675.12445	1056.2804	-493.61157	-530.22931	709.85822	-165.20119	-643.93213	741.44873	-166.9713	-677.00574	292.11554	-253.81247	-778.13007	301.72928	-219.46504
508	2.53	-462.98163	129.41371	-558.50977	-511.72964	137.57379	-530.9668	-335.10532	538.92053	-395.66245	-442.31671	517.63086	-374.82983	-323.88019	995.82666	-545.14404	-675.31781	1053.416	-496.31287	-535.97937	700.33313	-171.62422	-649.88062	732.63159	-174.63083	-681.54321	287.58719	-277.04211	-784.13263	295.40399	-245.22897
509	2.535	-462.35992	128.9668	-558.69873	-511.33389	136.9791	-531.51184	-336.06613	538.26044	-393.9133	-443.93353	516.97302	-374.15976	-323.90411	994.98224	-543.36395	-676.14075	1050.776	-498.79715	-541.88409	690.98792	-179.30444	-655.99365	723.5578	-182.78407	-686.33563	281.85532	-301.99878	-789.63629	289.70856	-270.72818
510	2.54	-461.66946	128.4325	-558.92096	-510.88095	136.29344	-532.1228	-337.2749	537.52686	-392.07162	-445.06848	516.43958	-373.85498	-323.95618	994.34528	-541.81628	-676.83002	1048.1053	-501.45276	-547.71576	681.67438	-187.09268	-662.2002	714.6145	-191.24779	-691.12677	277.04895	-324.57715	-794.69696	284.63275	-296.16248
511	2.545	-460.87256	127.9176	-559.20593	-510.34128	135.683	-532.72137	-338.52313	536.84406	-390.14255	-446.60312	515.74255	-373.42874	-323.95203	993.89624	-540.32825	-677.37665	1045.4122	-504.16141	-553.16766	672.69122	-195.69978	-668.05463	705.47235	-200.32693	-695.33514	272.93979	-347.68155	-799.4295	279.798	-321.29822
512	2.55	-459.99203	127.34516	-559.40222	-509.84128	135.05203	-533.41235	-339.86066	536.19684	-388.26343	-447.77448	515.26434	-373.20074	-323.85156	993.354	-538.76648	-677.74585	1042.7518	-507.061	-559.60724	663.72223	-203.75572	-674.4563	696.72229	-209.18622	-698.48792	269.13754	-371.46811	-803.42175	276.35736	-345.18796
513	2.555	-459.13425	126.80191	-559.67816	-509.00949	134.37616	-533.77344	-341.30502	535.53925	-386.36841	-450.12518	514.35535	-372.88144	-323.68845	992.91614	-537.30566	-678.31696	1040.114	-509.99789	-565.69684	655.23511	-212.15431	-680.46008	688.5058	-218.56448	-701.34253	265.83466	-394.64972	-806.72986	272.42426	-370.23419
514	2.56	-458.25342	126.28667	-559.91278	-508.43423	133.71185	-534.40765	-342.79895	534.86615	-384.60913	-452.3309	513.66748	-372.4429	-323.67636	992.40161	-535.77911	-678.64325	1037.5621	-513.10425	-571.53052	647.20422	-219.96571	-686.74408	679.64105	-228.73218	-704.58173	262.84778	-415.81635	-809.94507	269.57281	-393.31384
515	2.565	-457.42844	125.77008	-560.15198	-507.86459	133.0506	-535.16034	-344.31244	534.30695	-382.87457	-451.84494	513.69324	-370.72232	-323.80569	991.90143	-534.24817	-679.19543	1035.0264	-516.23779	-578.12506	639.31641	-229.12865	-693.18555	671.6983	-238.76622	-705.93738	260.19662	-439.24115	-812.84802	267.28925	-416.10864
516	2.57	-456.61649	125.19239	-560.42401	-507.38187	132.37383	-535.96173	-345.83783	533.7384	-381.31976	-455.31522	512.73364	-371.81479	-323.91623	991.39734	-532.72534	-679.52643	1032.5242	-519.57941	-584.55261	631.67877	-237.76797	-699.45819	664.10559	-249.18599	-707.88525	257.72794	-459.98746	-814.00098	263.29279	-441.7247
517	2.575	-455.95605	124.60438	-560.76947	-506.95605	131.78981	-536.7038	-347.56702	533.42188	-379.72571	-457.57449	512.22681	-372.51611	-324.1149	990.94513	-531.2486	-679.88824	1030.0134	-523.07263	-591.16595	624.30542	-246.51074	-706.12439	656.30249	-260.30023	-708.64868	255.70634	-481.32382	-815.77954	261.17511	-463.59134
518	2.58	-455.31824	124.10042	-561.0722	-506.56598	131.06468	-537.47101	-349.3663	533.15643	-378.26028	-459.59579	511.02753	-373.50052	-324.61728	990.39246	-529.60571	-680.21899	1027.5891	-526.51874	-597.89062	617.24866	-255.27728	-712.38318	649.08588	-271.59473	-709.07959	254.15602	-501.46652	-816.95618	258.97794	-485.53262
519	2.585	-454.79099	123.41094	-561.34778	-506.24609	130.42929	-538.18439	-350.99307	532.6322	-377.2605	-460.38397	510.42111	-375.43869	-324.89789	989.92493	-528.14636	-680.61865	1025.2906	-530.05188	-604.79871	610.48535	-264.25623	-719.05206	641.89282	-283.47562	-709.32544	252.09042	-521.43408	-817.21411	256.69504	-507.88629
520	2.59	-454.51529	122.66507	-561.69525	-506.00565	129.54526	-538.74084	-352.66605	532.10687	-376.49969	-463.12805	509.91333	-374.51456	-325.58859	989.31903	-526.55243	-681.03534	1023.2397	-533.34973	-611.79938	603.96564	-273.39688	-725.31702	634.94379	-295.59164	-709.35999	250.16197	-540.34253	-816.99933	255.02908	-531.3396
521	2.595	-454.37692	122.07545	-562.04858	-506.13828	129.01413	-539.50372	-354.20563	531.5755	-375.90204	-465.34521	509.772	-374.13062	-327.00247	988.89716	-524.73358	-681.27081	1020.7402	-538.15576	-618.78064	597.74707	-282.69037	-731.45776	628.46295	-308.21646	-708.45959	248.65712	-559.19531	-816.62231	253.37616	-552.11945
522	2.6	-454.33353	121.43309	-562.35632	-506.14423	128.07686	-539.87567	-355.74921	531.06622	-375.49762	-466.38605	508.71414	-375.89844	-327.38818	988.32324	-523.51685	-681.92328	1018.8909	-541.71594	-625.87714	591.80518	-292.24496	-737.43176	622.4942	-321.01291	-707.0556	247.47241	-577.15509	-815.29437	252.00372	-572.92987
523	2.605	-454.55768	120.81099	-562.66089	-506.52921	127.35653	-540.2514	-357.22882	530.55243	-375.21753	-468.02573	508.20078	-376.50198	-328.39914	987.83533	-522.15112	-682.42853	1017.0293	-545.48547	-632.89331	586.10919	-302.04547	-743.396	617.11743	-334.05243	-705.9278	245.7211	-593.97662	-813.9585	250.36787	-593.30695
524	2.61	-454.88086	120.16677	-562.88647	-507.0871	126.92691	-540.87427	-358.71277	530.06848	-375.16272	-469.22263	507.48462	-377.78928	-329.78528	987.36768	-520.68866	-683.14661	1015.3063	-549.17517	-639.74988	580.6723	-312.07791	-749.16205	612.28082	-346.94891	-704.30872	244.13567	-611.00513	-812.76385	248.66336	-612.17078
